<mxfile host="app.diagrams.net" modified="2023-01-30T17:45:16.176Z" agent="5.0 (Windows)" etag="CObNjs9udf9bOfoeBOKw" version="20.8.13" type="github">
  <diagram name="第 1 页" id="GdRGBNcfrJul_GVanPcT">
    <mxGraphModel dx="1195" dy="628" grid="0" gridSize="10" guides="1" tooltips="1" connect="1" arrows="1" fold="1" page="1" pageScale="1" pageWidth="827" pageHeight="1169" math="0" shadow="0">
      <root>
        <mxCell id="0" />
        <mxCell id="1" parent="0" />
        <mxCell id="3ol01yy-CsQuldajDIK3-5" value="" style="shape=image;verticalLabelPosition=bottom;labelBackgroundColor=default;verticalAlign=top;aspect=fixed;imageAspect=0;image=data:image/png,iVBORw0KGgoAAAANSUhEUgAAA2EAAAFzCAYAAAC3jQGGAAAgAElEQVR4Xuy9C3hU1b33/80NEbFgRSGKIkVbrDcU34JWpIA2RVHfoOABDl5CpS0RaEON/0bFR6o5B5S0gOE9pRVFih5Q4GhRTvSApaiAj6B4A8+RgyAaVNREAQOTy/+39p49s2bPTOa2955Lvut5eExm1l6Xz1qJ883vltcmDWwkQAIkQAIkQAIkQAIkQAIkQAKeEMijCPOEMychARIgARIgARIgARIgARIgAYMARRgvAgmQAAmQAAmQAAmQAAmQAAl4SIAizEPYnIoESIAESIAESIAESIAESIAEKMJ4B0iABEiABEiABEiABEiABEjAQwIUYR7C5lQkQAIkQAIkQAIkQAIkQAIkQBHGO0ACJEACJEACJEACJEACJEACHhKgCPMQNqciARIgARIgARIgARIgARIgAYow3gESIAESIAESIAESIAESIAES8JAARZiHsDkVCZAACZAACZAACZAACZAACVCE8Q6QAAmQAAmQAAmQAAmQAAmQgIcEKMI8hM2pSIAESIAESIAESIAESIAESIAijHeABEiABEiABEiABEiABEiABDwkQBHmIWxORQIkQAIkQAIkQAIkQAIkQAIUYbwDJEACJEACJEACJEACJEACJOAhAYowD2FzKhIgARIgARIgARIgARIgARKgCOMdIAESIAESIAESIAESIAESIAEPCVCEeQibU5EACZAACZAACZAACZAACZAARRjvAAmQAAmQAAmQAAmQAAmQAAl4SIAizEPYnIoESIAESIAESIAESIAESIAEKMJ4B0iABEiABEiABEiABEiABEjAQwIUYR7C5lQkQAIkQAIkQAIkQAIkQAIkQBHGO0ACJEACJEACJEACJEACJEACHhKgCPMQNqciARIgARIgARIgARIgARIgAYow3gESIAESIAESIAESIAESIAES8JAARZiHsDkVCZAACZAACZAACZAACZAACVCE8Q6QAAmQAAmQAAmQAAmQAAmQgIcEKMI8hM2pSIAESIAESIAESIAESIAESIAijHeABEiABEiABEiABEiABEiABDwkQBHmIWxORQIkQAIkQAIkQAIkQAIkQAIUYbwDJEACJEACJEACJEACJEACJOAhAYowD2FzKhIgARIgARIgARIgARIgARKgCOMdIAESIAESIAESIAESIAESIAEPCVCEeQibU5EACZAACZAACZAACZAACZAARRjvAAmQAAmQAAmQAAmQAAmQAAl4SIAizEPYnIoESIAESIAESIAESIAESIAEKMJ4B0iABEiABEiABEiABEiABEjAQwIUYR7C5lQkQAIkQAIkQAIkQAIkQAIkQBHGO0ACJEACJEACJEACJEACJEACHhKgCPMQNqciARIgARIgARIgARIgARIgAYow3gESIAESIAESIAESIAESIAES8JAARZiHsDkVCZAACZAACZAACZAACZAACVCE8Q6QAAmQAAmQAAmQAAmQAAmQgIcEKMI8hM2pSIAESIAESIAESIAESIAESIAijHeABEiABEiABEiABEiABEiABDwkQBHmIWxORQIkQAIkQAIkQAIkQAIkQAIUYbwDJEACJEACJEACJEACJEACJOAhAYowD2FzKhIgARIgARIgARIgARIgARKgCOMdIAESIAESIAESIAESIAESIAEPCVCEeQibU5EACZAACZAACZAACZAACZAARRjvAAmQAAmQAAmQAAmQAAmQAAl4SIAizEPYnIoESIAESIAESIAESIAESIAEKMJ4B0iABEiABEiABEiABEiABEjAQwIUYR7C5lQkQAIkQAIkQAIkQAIkQAIkQBHGO0ACJEACJEACJEACJEACJEACHhKgCPMQNqciARIgARIgARIgARIgARIgAYow3gESIAESIAESIAESIAESIAES8JAARZiHsDkVCZAACZAACZAACZAACZAACVCE8Q6QAAmQAAmQAAmQAAmQAAmQgIcEKMI8hM2pSIAESIAESIAESIAESIAESIAijHeABEiABEiABEiABEiABEiABDwkQBHmIWxORQIkQAIkQAIkQAIkQAIkQAIUYbwDJEACJEACJEACJEACJEACJOAhAYowD2FzKhIgARIgARIgARIgARIgARKgCOMdIAESIAESIAESIAESIAESIAEPCVCEeQibU5EACZAACZAACZAACZAACZAARRjvAAmQAAmQAAmQAAmQAAmQAAl4SIAizEPYnIoESIAESIAESIAESIAESIAEKMJ4B0iABEiABEiABEiABEiABEjAQwIUYR7C5lQkQAIkQAIkQAIkQAIkQAIkQBHGO0ACJEACJEACJEACJEACJEACHhKgCPMQNqciARIgARIgARIgARIgARIgAYow3gESIAESIAESIAESIAESIAES8JAARZiHsDkVCZAACZAACZAACZAACZAACVCE8Q6QAAmQAAmQAAmQAAmQAAmQgIcEKMI8hM2pSIAESIAESIAESIAESIAESIAijHeABEiABEiABEiABEiABEiABDwkQBHmIWxORQIkQAIkQAIkQAIkQAIkQAIUYbwDJEACJEACJEACJEACJEACJOAhAYowD2FzKhIgARIgARIgARIgARIgARKgCOMdIAESIAESIAESIAESIAESIAEPCVCEeQibU5EACZAACZAACZAACZAACZAARRjvAAmQAAmQAAmQAAmQAAmQAAl4SIAizEPYnIoESIAESIAESIAESIAESIAEKMJ4B0iABEiABEiABEiABEiABEjAQwIUYR7C5lQkQAIkQAIkQAIkQAIkQAIkQBHGO0ACJEACJEACJEACJEACJEACHhKgCPMQNqciARIgARIgARIgARIgARIgAYow3gESIAESIAESIAESIAESIAES8JAARZiHsDkVCZAACZAACZAACZAACZAACVCE8Q6QAAmQAAmQAAmQAAmQAAmQgIcEKMI8hM2pSIAESIAESIAESIAESIAESIAijHeABEiABEiABEiABEiABEiABDwkQBHmIWxORQIkQAIkQAIkQAIkQAIkQAIUYbwDJEACJEACJEACJEACJEACJOAhAYowD2FzKhIgARIgARIgARIgARIgARKgCOMdIAESIAESIAESIAESIAESIAEPCVCEeQibU5EACZAACZAACZAACZAACZAARRjvAAmQAAmQAAmQAAmQAAmQAAl4SIAizEPYnIoESIAESIAESIAESIAESIAEKMJ4B0iABEiABEiABEiABEiABEjAQwIUYR7C5lQkQAIkQAIkQAIkQAIkQAIkQBHGO0ACJEACJEACJEACqRD4+Enc3W83RjdV4aLAOPuxZsJUYM5TGHVqfIPXLx+Du3fNwCNVg+N7wOil5umNPdOaUT4I2FZdiFq8bIxhjPfsaNy/bByKI64x/ml8BxqAHt1RFP8jae7ZgB3PLMSKuY9i72u7gX6DUXxdOSZUjsPZ3e1La8D6aWOwd9KLuOWCJJdt8J2L4g0vyzl0bn+QgzuwproSa5athQ/90WPCXZhcNQ79uqrHGlA3eSIa7/wbxvZLci18LCsIUIRlxTFxkSRAAiRAAiRAAhlLIGERthm1nS/Dtrg3NAvlIQJPfzBUhEUdMhURtqUak+b3NcVc3GtOZ8f9WF9xA5btuQq3VJdhYB9RXY27sXVJJR6r7Y7SfyzFqD7a+rbXYGqt7G9RKboltewmEb9XYGOv8fj8mc6Y/EwZTo86zm6sKRuCut5/xh2Vw9Dj0E6s+d0o1PVaigXVw9BFnvNtuAdTV16K2fNHJrmepDbBhzwmQBHmMXBORwIkQAIkQAIkkGMEEhZhkffvhCWMIkz01nPTUDG7F8qfF8ukYV0Ktl2Lr0H1uvGaoGzClplnYvPQDzB9RAwLVjS4uxbjzgqg/JnxqJ95noz1dtSxDr9ajbv/0hd3LNYErXF/NmH4/vkYbljp3sRjg+5BlydoDcux3xQh26EIy+XT5d5IgARIgARIgARcI2C4/s0KH754yT7cfyPad0c0PnhPRH3M1ZWidJfm0tjwJpZN/2esX74TRSUVKJ3/K/iqzgpxR1zVT83fC9AtWHaheHAzFl0v89/4LO4oO1ssMLuxvmoaVtSIi5y47p0+YQbGTilF9zpxabx5dWCVF20Qt8fepvtlyfa+2FY5E5+P32jsd0v1TCxf+Twa390PnDMS58+cjynX9fXYhdG0DG4dewD3Xhfmdwg0vYR5P6hG8foXTXe/hrWo7rUWgwMCSFkp5+KUV6bgk1mTsa3uWxRdPQUT/lSFIT0iHVYTNladh20j/MLLL8iUNSxub0K1pu4L0U87523VvbG890bMvqlvzBvCDtlJgCIsO8+NqyYBEiABEiABEsgUAkrsDBVLSKSYsGtn4JQbB2uxYtEXHdsSthurJ5yF9f3+ZrqyfbEJf31gMfaKwCqeGYwJiynC/AJs54iluL9ysOECt/fxa3Df38ejqqZUXA7rsbPuJfh+UoZBPeVNuzuiP/6pccoUTLlzNM7sqWLFJAZr3RvodO6FOL1bZzS+/wRqr12IPs++nnycVVLna4qoPrpwDRlHxX/1wOaSA6i6WkTaVjm7OeKKuNyyTKnnb8fO60di7Jy7MPC4emytmYjH9s9ATRR3xcMNDSjqHoyXs38faxuH11VialUv/HZLBc72d/bJa798Zhhq6JIYC1/Wvk8RlrVHx4WTAAmQAAmQAAm0R6Dl8cVo219v/tv+RtKw8noVo2jZ01GeNy0vq1fOEotVmSThEAuU0azXze8MC5IkzlDNEFuadSmehRnWtTMWY9K0zpguH9bPtx5SlpdzJuN0//jKOteuCDswHK9ffwPeHvo0ZkvyDiXAVNsx/2IsbPoLaioHhFuuIoqwVRgcVeiYY75VczH+XPgXLJg2IJ4tOtPHEIjtr01nZJzF+5IMZaaVDEWJsBuADfsC54U9T+LOH7yBUQ1zMCRJj8WomxNBXHvVDZKI4x1TFFpNxald24Tb9lQFz9oZQhwlQwhQhGXIQXAZJEACJEACJEACqRNQgqv1hbVoWfJI6oP5R2hXhBlWsJnBuWaamQlNEebPjgjT9RCGm6Il0sxHDJfGd8UipSe9sFwVA2OZfSNbynZjxdVn4fO4LGGm+2NR5YuYPWtYaNKHj9fioXHX4IMTpmBIWRmGlwxAsSU4IoowezZISSjx6WbULXsCm9ftwIF3xJL2qUzm30Mk4WkJ03C3TssFM0ICk+tNVoggZM3xErOEhTON9HysMZO8apIlccW0K7HxzFBBbIyWSiKVJJfDx7wlQBHmLW/ORgIkQAIkQAIk4BKBVrF2NVfcHhhdiaf8kquQd8GFyJd/zjdTJGDJUtTfbIoSBFLEnxEaE+YXVkEh1k6GRCU05gC1leLiqImzaCJs9Y1n4ZOKeNwR38OQumOxpuR59N/wXxFSqTehfvtarP/TQqx/rlcwi2A8IkysRfddtRjHSYaKq4deglMkzeAnq27DQ+LGZ4jSpgY0NoWeQFHX7uhSKOLtYAMON4e+18Xv3qdc+3whb3VGt+6iDqOOl1hMWNpEWLO4lk4egjV4EPfrSTqsvVKEOf/jmmEjUoRl2IFwOSRAAiRAAiRAAokRUNav5jkPBFwOlegqrLwLSoS52QI1uUSAJVsnzLIC6e6KRgxWwLoWTMyhUpf/sqYvqvSkDwdW477eY9AjXndEEYr9Zfw7x+5AiT1VuwYrxJUwDhEWSSDWPyGufh8mWvcs9RNLJDtiZHdEe0yZw5YwvwWsTgTYvYvG4XQRomFNuSNOBqZocWKpk+EImUSAIiyTToNrIQESIAESIAESSIiAEmC+CRLDI02JroKbygzrl/tNLC7VL2GgFNmNXAg5RrFmuxujvmCxhJWeMxGbVZbDy17C3QGLmKQuv3wU3rriz/h1hb/G1Oy5eOv9BBNzyFz1yyfi7tqz/WncxSoz5f/Bd/OvUHJOMbo07cSK6Rdjz3h/8gq11lnd8dvlZTizc2cUfRpenLqxTtLCP9ANtyyVZBYnNuHA1oV49J5V2PuzhxMsPu3EyfnrhL07DGPnl2OIXidsSTFKn18UrBOmEnOIsA26g7rsjhiPABMETMzhxD3I7DEowjL7fLg6EiABEiABEiCBKAR090Nl/SqqeTg9rJKpE2aJMH+Mk2GzU+MEBJeV2MOWov7AZjw24+fY6E9RP2rOrcCs8xJPUQ+zwHDtB+WGNabb+6vx13lz8fbjm+Hr2R/F0/8iQm8wzKzsOyQr47VYs3K3mWDEn6JeuV9eFCDegC01U/HovCfFfdB8fmyvuZiXBkuYuSTJ1vjMQqyY+yj2vrYbkLT7xdeVY0LlOJytZ643UtS/ihFNv4eZN8VlEdaO+DZLG5gxgypRyp+7PoWaMqaoT88PtfuzUoS5z5gzkAAJkAAJkAAJOEygte55wwVRtbQKMEs8Sd2sUFHSjiXMltI+JGmFLRlHWHr4RDja3QgTebbD9G1A3eQrUF/udSr99gBLspXrxuDwrExaU4e5EJ5tlCLMM9SciARIgARIgARIwAkCugAruHmS4YKY1paMJcz1BTdhx8Jr8NCB32vp112fNCsnULF2U9cNxwLJGFmUCTvwF3wul9i/0zNhPVyDKwQowlzBykFJgARIgARIgATcIKBqf1np51XyDW/iv9zYictjKitY2RsoeWIpxl7gdHErl9fu+fBitSybisN3PYWx/Tyf3DahKiY9Bh/c/DdMHshzS/dpuDk/RZibdDk2CZAACZAACZCAYwSU+6GygqlWKPFf7qSdd2y5HIgESIAEohKgCOPlIAESIAESIAESyHgCFGAZf0RcIAmQQAIEKMISgMWuJEACJEACJEAC3hPwSQHmNinETAuY9+w5IwmQgDsEKMLc4cpRSYAESIAESIAEHCBAAeYARA5BAiSQcQQowjLuSLggEiABEiABEiABRcASYEYRZpWEQ2qBsZEACZBALhCgCMuFU+QeSIAESCDXCLRT0DTyVkML2m6rLsSmEVZR2Ymoj8bHqskUUiRX7xypcGuuwc7M/VCAZea5cFUkQALOEKAIc4YjRyEBEiABEvCCgFGPaRUG73oKo06NPmFAhA2SPkrQSQ2gR6oGhzxgFMjdNSPwunqmFi/b+lGEeXGs+hxt++uNIswqBowWMK/pcz4SIAGvCFCEeUWa85AACZAACaROoF0RJrV+JvTG6pX6NGIh2zAam+cD5cvGoVh7S4muVf324f4be/lfVc9PBeYsACrt49iWblnQUt8RR9AI2AVY0bKnyYcESIAEcpIARVhOHis3RQIkQAK5QSDEoqW2FJclTFmvLgM2iDuisoRBfb8elzRV4aIAFktwtW9Ri/hsFMtabhBP3y4owNLHnjOTAAl4T4AizHvmnJEESIAESCBOAkmJMC2erHiJsnTBsJDtmWaJMr+Yq7SsY6Zo22asaRbKdbFmiL7dGK2/RhEW5+nF300JMN+EG4wH8iT5RpEUYmYjARIggVwmQBGWy6fLvZEACZCARwRa655Hq8TwqDge9YE63pZfchUKJetdtBZZhEVItKG5B26rrsYmzARG7EOf+ab4Gv1hePxXqCuiX5jFIbhULFktFmhujPHutmP00wVVIjtuk84q+yEFWCLU2JcESCBbCVCEZevJcd0kQAIkkGYCuvtYsktJToS1k5hDWa6W9MVoXGZmRxwkVq5qsXjdvDto0Yrm0hhm9TJjzDZfq8eNARRh7Z92siJMjaoScTAOLNmfJj5HAiSQTQQowrLptLhWEiABEsgQAi2PL0bLkkcCq1FiSjVlyVDuZOrDtBMtUXdEq/8l6/wp6o2YMLOZ2Q+XovTdiWHCyuhgE2FG9sSbLwx1T/SPE2ZFc2KzHXgMQ9DPmGpYUSnEOvBF4NZJoAMRoAjrQIfNrZIACZBAqgTs1i8luJQ7oVOiy76+xESYWK6qX8LAqnGot+qEaSLMTLIhsV/XL8X9tkyJdhFWbAgwoDQsFb5pHQuJL0sVKp83CNiFWOHcBa7dKyInARIggXQToAhL9wlwfhIgARLIEgJ2N7NCSZ6gLF9utsREWHAlYc/JW4YlbJbZx0zYYaWm9z9nWcI2ALVD39AEmC31fTQR5yaIDjI2hVgHOWhukwRIABRhvAQkQAIkQAIxCdiz17lp/dIX44gIs7IlBpJ3WNkQg5kQA66HYQIsJhp2cJgAhZjDQDkcCZBARhKgCMvIY+GiSIAESCBzCHifPlxPGZ8Ah5AMiSomzMyOuFriwKK7H04ElmzD4GfX4JRl/jpihkUsQgZG21IiWtMSWC67RidgrxlG10TeFhIggVwjQBGWayfK/ZAACZCAwwR8FbcbqeeZMMFhsByuXQIUYrwgJEACuUyAIiyXT5d7IwESIIEUCegCjNaIFGHy8YQJKCHW+sJaIxOn+iNAgSSBcTsOMeFF8gESIAESSIIARVgS0PgICZAACXQEAnoaei+ScHQEptxj4gQoxBJnxidIgAQynwBFWOafEVdIAiRAAp4T0OPAKMA8x88JbQTsQkzVpSu4qYycSIAESCBrCVCEZe3RceEkQAIk4B4Byw2x4OZJ/LDrHmaOnCAByzqrXBMpxBKEx+4kQAIZRYAiLKOOg4shARIggfQT0D/oFi17Ov0L4gpIQCNAIcbrQAIkkAsEKMJy4RS5BxIggaQJKDcnvbV9uj/4re09yF/f9ZbXM7TYr/rrfLa3EDdElQRB3L7YSCDTCOjxirTWZtrpcD0kQALxEKAIi4cS+5AACWQ8ASUeDAFl/VdWbLxmCSlNXNmFl1ub00VZ3gUXGtOo1wzx5hdsmZbpLZANUdZbVPOwW2g4LgmkTCBzhJiqazcXfXY9hVGn+relas1VAuXLhmHrhKnAHO29kJ3vx5oJvbFnWjPKB8kbgefGob5a1brzvx6BlipkvqrfPtx/o/pjkG2cuOiGPqPGq8XLeKRqMIzi5c+ONuvrGXXzdmN0k7+OXlxjBzv5DjQAPbqjKMHn0te9ATueWYgVcx/F3td2A/0Go/i6ckyoHIezu9tX1YD108Zg76QXccsFia849AwTfz7RJxqfmYzqL36H2WV9E32U/V0gQBHmAlQOSQIk4ByBdsWVCCunBVWINctm6YIL81nCzCAm8+nzG3vT5nQ7QUar1AJrlppgqik3xFyw7Dl3EzlSJhLQ76y6r+kpoxAuwtSH64CAak/E2N/TRFgxzKLl9UssoaWdgPHcKgwOCL8IIixkrEinF6dwS0WEbanGpPl9IxdLz8QLJWJ2fcUNWLbnKtxSXYaBfUR1Ne7G1iWVeKy2O0r/sRSj+mgL316DqbWyv0Wl6JbEfrwWYWh6CfMGrsZ5G+ZjeI8kFsxHHCVAEeYoTg5GAiTgJAHdNc7JcbN1LLfdrnwTbjBErdvzZCt/rjszCRhFnWdMNe5uehJ22ESYIVomItTROciuWBNVYR/Cw4RTBCubDKVbrcyR7YLKL+BmvoxysWxFdpSmCLPf6MbnpqFidi+UPy9Wv66h7+5afA2q143XBGUTtsw8E5uHfoDpIzon9cPhuQiTVb5VczGW9XgKs2+iNSypQ3PwIYowB2FyKBIggeQIqL9mt8x5wHzYb31SH6YMK5i851ZLytJjWcf02DH/Ap22yun7dtsKxmQcbt0yjusFAT2FvZpPxTIa//xuwO6swRQxq1dqo1+/FKXnTMTqWbNQ7nffM1z7ds0w3PxCmmVh2tVX3AqjizbrmYs2aC6LIVYwmwjrbYpA2C1oDW9i2fR/xvrlO1FUUoHS+b+Cr+qsgCtkiCDQLVh2S9jBzVh0vaz3xmdxR9nZ6ILdWF81DStq1sInrnunT5iBsVNK0b1O9n3z6sCWjfUba9uNku19sa1yJj4fv1HcKYEt1TOxfOXzaHxXXMrPGYnzZ87HlOv6euzCaJ7n1rEHcO91YX6HMKxIP6hG8foXMbafbKthLap7rcXg/WJVMrqbgvmUV6bgk1mTsa0O6DZzEaqqhsH3XCUenFKDxq4jcdH8pSgfYY4fJsKaheWcmVjxpyfh+7Qvuk3+HW6ZVYbzteUceLUGf5xag/oD3VF8519xx4DnUaGscZrraMn2Xtg4fiZ2vXssusgYvxarXj9LVKqzre6Fe58pw+nu/GBw1DgJUITFCYrdSIAE3COgx3a4N0voyPEIMDdFVaL7VB8ojXgy+VDp9AdLJuNI9DTYP1MJtNY9D/X7xPrZVT8zRj0xldLeNUGmWav2Kfe7N1C88sJADFVkEeYXcFga6qrnFz/l165CbSTh5rd4rV5ZilI9Bs2yhJ0zC9tmzYRubTPPajdWTzgL6/v9DXdUDkOPLzbhrw8sxl4RWMUzTXEXlwjzC7CdI2TdlYNFgAF7H78G9/19PKpqSsXiVo+ddS/B95MyDOopb9rdEQ1BNxeNU6Zgyp2jcWZPFSsmMVjr3kCncy/E6d06o/H9J1B77UL0efb1pOKskr+bka2OwfFU/FcPbC45gKqrRRVtlbOeI+JnucTNGZ3U87dj5/jxuHXOFPTHJjw6+kocuOx3OO7M63HL2P7yTA3uK/kQo/YtQom4A4bF9ZVdjLreC/DraSNxeud6bFs4DYvWXILpL1ThfDG2+WTOitE7MOTZB8UtsjPqN8zE6hX12AE9fq8Wh6eV4bbK8ejTshNrfjcKG89dgwUVA8ytKDHZXVwSA+IxeWJ8MjUCFGGp8ePTJEACKRKwPjCpD09ssQkoMVYoWQudbLSCOUmTY6WbgN0q5sR6lJiLXq4h+OH9lCUqFuxlYOhl2BZxYlM8DXxZJb6AfHgfLck7rA/xMBNiiPi6X4RKJOuZmTDjQlyEN9AnJNlH0CoXsJjp8ysxNK0zpm+pwPnW67sW485zJuN0v4Utpgg7MByvX38D3h76NGaLVU8JMNV2zL8YC5v+gprKAeGWq4giTI9li3w6ymXuz4V/wYJpfuHgxCHGGiMszi78AZ2RcRbvi4VzpmXhNEXYcQ11Zk8AACAASURBVFuC4tG3rhK/rOqlcRcxfONZ+GS6CN9LIwhf+xmJQK2bLMLvamWdg/Z10DSmWM3bKncmYAmz8X31Hkx6oC+qnhNrmLGlN/HYoFE4unAfJg+MBYXvu0mAIsxNuhybBEggJgErDilmxwzqECl5h/VaSEZEe2KPFPZgpc5XmRWdTBsfYgWTbIjuWQtS2DwfJYEkCFjuzMrdOVXX5nhFmJkdUX0YX49LorojimCqfgkDbwZqjQyKQRFmfcgvx9QIIkwJrcU4ZVkZPrFlXDRixGYBEQWYrCiyNW43Vlx9Fj6PyxJmuksWVb6I2bOGhSah+HgtHhp3DT44YQqGlJVheMkAFFshUhFFWHimRd+nm1G37AlsXrcDB94RS9qnMpnEswUyNWpujYqwtU9r38HrYVkIzZi4ECEsrqJKqECJp4jjJWYJC2ca4fmwxCSmWN58rZlsJUzURbB+BueR+2LPwqk23p7rqHo/LLFKnLGASfzM8ZHECFCEJcaLvUmABBwmoCxgzVY8mMNjp3u4MJfHSKLMFlsWyQXSzXiwgBWMKenTfV04f9YSsH/4jiAAAnvT3AjbScJhWMoiuiOqgdSHaCvtvTkXNuxDn/laqnsby2gizLDKVMTjjvgehtQdizUlz6P/hv8S90V7Ioom1G9fi/V/Woj1z/UKZhGMR4TteRL3XbUYx91ZgauHXoJTJM3gJ6tuw0P7/XF0TQ1obArdUFHX7uhSKO55BxtwuDn0vS7dzXT4hxsa4At5qzO6dZd1Rx0vsZgwirCs/YHNmIVThGXMUXAhJNBxCRwd8eOOu/k4dx6IB3Mw2YBuBWNK+jgPgt1IIIyALrqUyJqBPf3as4T5B7CJMP1Dvf0Dvvq+Fgu0mmBKhKl5rPpkka0b1jj/9uPn8MsacUmTZAymS5q0A6txX+8x6BGvO6JY9vqLqLpz7A6U2FO1a0xCXAnjEGGRBGL9EyJCP4yQzMTl25dIdsTI7oi2enEJWMIMi1a77ohfYcV1Q1A/LTQbY0jWxkjlBMJeU+6IPwcWeR1z5/LhZeHwFGFZeGhcMgnkEgHdZYhxYbFP1smYMGWBVMyZkj42d/YggXACWnZEv+uc2SeWO2IEEWaLR7ILk5C6YyGWMGtVkUVY0N1tPx67fBTeuuLP+HWFJOY4JAkbZs/FW+8nmJhDpqtfPhF3157tT+MuMU5T/h98N/8KJecUo0vTTqyYfjH2jPcnr1DCYlZ3/HZ5Gc7s3BlFn4YXfm6sk7TwD3TDLUvvwsATm3Bg60I8es8q7P3Zw+EZJV2/hv46Ye8Ow9j55Rii1wlbUozS5xcF64SpxBwibI1YrMC5Jy7C/tr9dcyeouLp5AxVYo7uD2JKVanwCk/MYYjEKV+h5NkFGCVq+sArc7HogZdQf1p59MLadhHGxByu36J4J6AIi5cU+5EACThOgBawxJGqpBxOxITpVrBO615JfCF8ggRIIAqB9twR5RFLsAUsYZKi3laUOVSE2QWW7o7YngizPXdgMx6b8XNs9KeoHzXnVmDWeYmnqEeTxDJdgdoPynHvonHo9v5q/HXeXLz9+Gb4evZH8fS/iNAbDLMW8A7Jyngt1qzcbcZx+VPUj/bHy5mrb8CWmql4dJ6kZZecgur5sb3mYl4aLGHWenY8sxAr5j6Kva/tBiTtfvF15ZhQOQ5n65nrjRT1r2JE0+8hySX94jsxEeaTbIl3jq5EvxX+8gNxpKjf+0wl/lgl6e4P+lkPXo87bSnqQ/jaRZgqMF3VHb8OJOrgD3K6CFCEpYs85yUBEoAlwqyaYE4jiZiGXovLsr8fqb9KhBFokiEt0KSGmb1ZyTMM6579fX/sV7xp7y33Q+O/ag0Op9j2Vdxu1GCjFczpW8fxSCDUEhaVh1+EjY6Ujt5e8NmfVML8DRRJhMnLyuo0dGbodCHPJXAyYW50CTzbYbqqzIVXoL48vW59hmDfPgX/Vj0srrpqqqTAgw2/9zbzZIe5E4ltlCIsMV7sTQIk4BIBQ7gooeIXL+prS7CECJcExYxLy3VkWFXzyxBZfnGnvlfN7QyFKltcs4iw9jO+ObJFDkICJJB1BJqwY+E1eOjA77X061m3CU8W7NtwD6auG44FkjFSJQNxvX0sWSQ/6IaBF4jrpyQmObxL6slduxjFq/5L0s3bk6VEWo1kxLxuGlDzN7PgNFtaCVCEpRU/JycBElDZ+VRTQisgPjSLU4glyo9Lt1jZLUuWNSqSmLPmCVDXMhPGa6Fy48TsKe+t78PEmJ9LqiLNKgtAK5gbp8kxSSDLCSgrWNkbKHliKcZeEM8H+yzfb0rLV3FcU3H4rqc8ETW+XWvFbXMx3l63WgSYlAz4URkG/+sc3HKp7icZfUMqpuy+d8swO1JNt5Q48OFkCFCEJUONz5AACThCwI309BFdEB1ZrSkUM6GlEsPFwsyZcIJcAwmQAAmQQEcnQBHW0W8A908CaSRgZedzZQk/GIWC8eNQ8KPj0frYL9C8PFRA5d//LAoHHoO29/6O1qdXomXTf4csI/+OR1HQaytaZjyMVsl9lT/0PKBTAiv9/G20vumsaDMEpsSHFUlR5WQbrWDJkuNzJEACJEACJOAcAYow51hyJBIggQQJuCrCTh2HwoW3I7+rLOroh2h98LdoXm+Korwb56No8kBzteq9WRPQvCm4+LxJf0LR+HPNF758By01f0fe/+cfK949vvkwjs54Mt7ecfVTMWOpCDBaweLCzE4kQAIkQAIk4DoBijDXEXMCEiCBaAQsUeAooZ9NRuEAfxbD4oHIP/dEoOUg2t7cirYvj8hUxyDvR0OR182cte2dF9DmN1i1vXkfWv5Tvfp9FPzLQ2JFk2dV270JbSddgjwl6FqOinDzr7hATGOWdeyovNgS3EmbiDDf3Ssd25qevEOlqU+06SnpC8WSlmpcWaLzsz8JkAAJkAAJkECQAEUYbwMJkEDaCKgsfSqBhrKIOdbuWIZOPzsjqeHaXrsdzfMkQ6PRTkb+r6pQcOFhtMx7F/m/LkVeF3lZs3DlyVxFaq5vxVo26he6Bktq/ngfKlr2dCCjYrzP0AoWLyn2IwESIAESIAH3CVCEuc+YM5AACcQg4GjR5oAIO4q23Z8EZ+7UA3mnKlOWtM8/RNtB663jkdfXtHi1/eeP4XvQfD1vgLgrKuuZ8Z24Nj7jd0cUEdby7fUoGCDPdBIzWIG8rVvHVPdGiSWb8FvHRJmebEQVas7/6ciERJhuBUtGwPECkwAJkAAJkAAJOEuAIsxZnhyNBEggQQJKIOjFmtutFabVDos6TUCESazXCIn1sjreMB+dfmXGgeliC/gditaNQp7++iXy2kx57fMNaPldFVo+tokw3CIizC/oIi3koIgwqcVieSdaCTWsriG1wfyFmI33VPZFq2aYViTaSruv0vUnk/0xYAVLMaYswaNldxIgARIgARIggSgEKMJ4NUiABNJKwCdFg9uUW2KEFk1wtJsqPhV3RL8lrGBuXVBkHfxvcUd8AXnTNUuYJcL2rsHRW/8luHJrbpsIcwpwMrFctII5RZ/jkAAJkAAJkIBzBCjCnGPJkUiABJIg4HiGRF2EfWtl0JCFtZNEA8ea2TWCFjJJzDF3gSnEjOyJawArO6JyR7REmN0N0ZrDJRGmRKlyRyy4qSxu0hZfFmaOGxk7kgAJkAAJkIDrBCjCXEfMCUggswlYyTHUfw0LUzwufy5sSaVfD7gl+tdgWcLsLovtTu+EO6IxQTEK7q9G3ttVUmPsJ6ExYWkSYUlj73o8Oj1jpH1kIwESIAESIAESyAACFGEZcAhcAgl4TUAJrta65w03wHZd+zxYmEp8oeKxHGsOJeZQIix/gBR6flMVcY4SE/bxBjQv/Xtw6ZdIevyhkh7fLUtYt+5obWxIihcTcjh2wzgQCZAACZAACaRMgCIsZYQcgASyh4ASXi1+8aWv2si4J5YolRQi2eQPyVBQYrBZYsIcbQ7EhJnr8SfsaBR3xCfEHXGiGRPWtuk+tB47I6HEHE7uT1kHlaCKt9EdMV5S7EcCJEACJEAC3hGgCPOONWcigbQRUGKnZckjIQkwVIxQoqnOnd6AssIpa1x7dcL0zIlxza8Xa9Yf6PZ95P/oDOOVtvekQPPH4aMFizXLezdKNsXJKpviQbQ+/Hfk3R7MoNjS8icU/NCfHbHrKcg7SWLKVEHovQfMQQ9J3bDp/4LWuBacWCclmBMp1qwYN8+Yalg8aQ1LjDV7kwAJkAAJkIBbBCjC3CLLcUkgQwjYsw+qD/Dqg3wmNGWZs1wj1XoswaXHgiWyzvxJ9yL/pChPxCHCjCc/34rmR9Yg//5nUXiJ1AJThZgfOYKC2/2CbFEJmvdWo+iOPmhbeh+az7zXLA59UPq9eAT5V56Itn+V1PibEll5eF97ZkgVM6eElDq/RNPU0xqW2lnwaRIgARIgARJwmgBFmNNEOR4JZAgBu6tfJokvC5FVv8opZIWPvoL801MczUg7/xgKH33aHEu+b9490Iz1Qj1aK+cCFQ8hv5d8+/ELaH77+yg0RNhWtO4/D/lnilXsy01oHvNbxyxhSoAV1Tyc9MZoDUsaHR8kARIgARIgAVcIUIS5gpWDkkB6CejWL/UBPhnriRc7sNwkA3NJVkSrWRkR41qHv7BxQeUfkf/dKE8UFEqaev97reIoGC0jSEsT2r5oE2vTccGBlF9hvvxrPYq2wwXI6yoDtYqb4n/MQ9t501FwlrgmfqvqiX2E/BkjkFckw2/4LXyzkjeH6dYudYZWWnpVuNmI30uwsWBzgsDYnQRIgARIgARcJEAR5iJcDk0CXhMwLB5zHgjEfiVT3NfLNeuFhF2f9waJ8fqVcinU64FFmfWWP6HTxHPlTRFaGz5E/lD1tbT3t6Kt70DkdRIx9vk3IsaOh1VjDI1b0TJ6GtpmPi1WM3FJ3PokWioXJWwNi8cVM9nYLt+EG0yXRrGqJSPkXD8jTkACJEACJEACHYQARVgHOWhuM/cJ6O6HmWz9sp+EJQxcP6EERFh+hSTeuOz7IrI+RMtP/wWY+5BkQxTj14PXimvizSgsPYqW/T9BkSHUzNb22sPw/e5J+eoS5A+XjIrrpeaaw80QaGL1S9aySWuYwwfC4UiABEiABEggSQIUYUmC42MkkEkE7AIslfghr/dlFYtWqfNVoeh4W8L1zQaOQ8GVIqyUYHrzPrTEUbs47wffF+vXf4vnohRuLr0UratXGl6MRjv1ehQoEbZXXA4bxGK2bbf5ut81MsSdUIknW7OvP+R7Pwd7Hyfi+gLWsAxK0BLvmbMfCZAACZAACeQKAYqwXDlJ7qPDElAZBq0U74mmL88UaCqGLaxFEGQJC68ENhgQTZqIChFS/tdVLTXVvKqnZu052VgwO4KANUz2UTh3QcKZFhNAyq4kQAIkQAIkQAJRCFCE8WqQQBYT0AWYE1YSr1HYU9R7Pb8hpvwufpHmjpQKPix1vCXO7ANEsH4p4RatKZEVb0tVAFrWMFUrzkr4Ee/c7EcCJEACJEACJJA6AYqw1BlyBBJIC4EQAZaliRas+lVpAZjFk6YquPW7k2ySjyzGx6WTAAmQAAmQQNoJUISl/Qi4ABJInIAeA5bqB/LEZ3fuCSUGdAtQNHfDiK977K7o3K5TH8mJ7Ia0hqV+DhyBBPDxk7i7326MbqrCRUni2FZdiFX99uH+G8VS7sB4SS7Dgcd2Y83kn2L147tRdPUi3LGyDP0cGNUYYks1Js3vi/uXjZMI3cxpvk9fwooHarDxmbXwfdoLRUOvwuCqWZgwVL62L3N7DSoeORv3zh+Jbk5vQcaeuvxCzK4ehi5Oj83xXCNAEeYaWg5MAu4QyBUBligdJcQMwWb91z+A8br8M1qUhBaJzpXJ/Z0S3fo9ojUsk0+ca8toAg6IppwRYbsWo+KcN1Gybw6GoAlFPbqHC5FkDzMDRZhv+0Lcfe0TOOn3D2HstQNQ3LkJ9dtXYcUdk7HnZy9jdtVgTRA1oG7yFagvfx23XJAshPae240V103E4VkvuzS+G2vmmBRhvAMkkEUE9A/OuRjPY2VKVGKr9c1txsm0bX8j5RMKi+1qJzYr4mS2ItIpLyjJAdQ+nEymYbmD5uJdShIxHyOBxAhQhAV5uSmU3Bw7sRP3934Tj10+CnvKN+LeG/uGjnDwJcw75w4UrngZ5YM6m++JQL1zGjD5OQetg7Z1Nz4zGRVbx+HfZg1zTvwmxYYPxUuAIixeUuxHAmkmoBc2ztYsiNEQ6uIyHsx6QWM9sYb6WnGKlFAj0rjtuTm6mYkxnj3qfVTdN7Unde5OFlk2invPmGowozUs0VNhfxIQAn4Rds2+4dgxfSI2rvwWRTdW4Na5FRjUI0hob101FlUtRP27+1FUMgXDZ87C2IHdjQ7tWcJ82xfjwTmLsXflZvjQF11u+g1umzMF55uPms+e8TpKPrwHy2atBUrEFe6RKgw5tBYPTb4NOzYci24zF6GqahiM5Xz8Emrvq8bbdS+Z7nNXj0dpzRyU9Ik8nu+ckbhozlKUj/BPGOXQ1TpqZ+lvzkK54aLZgLcen4nHZi9E4y6Z78YpGDurCsP989UvH4O7d5Whqp+sa9ZuDH/hKYw6VSp/PFOJP1bVoPFgfxTf+VfcMeB5VNRmkDuiEoXTOmP6lgqcH4HJ3sevwX07K/Bv4h6o3BJ3zL8YC/EXLJgmBSelBfbdezUevGcxfF0Ho9+df8avbzrbsJ6Fvd+jDCVPzMfYU3di2S/GYL26Z2WzcMccEXVd/QtQd/HS93DN+7+Hpf34M5rZBCjCMvt8uDoSCBBQadyVVUh9IM+mOmCxjtCzYs2xFpLB7xvFmf1CzOllWinrc03YO82J45FARAKGCHsCvpsGYNRdMzCwWxN2Pn4bap++BNNfqML5Ygg5vK4SU+87BrcsnYHBPTuj8f0nUHvtYvR51nQda9cdcddm1B3sicH9itGluR6baybisf0zULOo1IgrUs8++sw4DJy/AGPPAd6ePwqLPrwUF3Xvj+GV49EHm/Do6CtxYMYB3HudCKmGN7Fx+zE4+4K+6FbYgA9W3IGH/nRhQEwY4/1nKfrftQC3/rgzDrwyFw9e9ylG7VuEEk1URmQRZq1qwltzrsC8neNRfm8ZzuvZhA+emYmFlV+h5NWlhtgyxEZNPc7+xcO4ZXR/9OjeGYdfvQd3jvsQQ55dgFESVLbnuZl47tl67MDojIkJq39C1v3hDDwiLocRm4rRmgxMEZF2NvZjTVlv7Pl5M8ovNXsb+65twNm3PIjbxvaHb5e6EwvlTpjuiiaXJpxfOQe3lfRF/bO3oXpeMc4vOQYXTboLA0/cjbppV2L9uWuwoMIUdoC4JF49Boer3XJ55O8ApwlQhDlNlOORgAsEAgJMrCHKYpErTbfu5cqe3NqHsoS5cfa0hrl1Yhw3EwioPzJYcaOpuDZH/fkzRNhcnLlF/+ArH7on9MZb4w+g6uqvJFZHPhjPCv1gbHyI33cXHqkc0L4Is0M8sBr39X4JQ/bPx3DRVIZo6vx68IN4k7jCdb8D3bT1GHN9IIJhZiTBIG51g34OLDLXZ1i08LImLnZj9Y1nYe/kg5g+wu9aF+1g7SLMYCNrtQm4t2ouxp+VVUjEgyE2ntXFlclu61i/aDTmasKWmWdi0a4HM0aEhXOyQQlxU92M2s5zccr7T6FUtwCG7Ftyj8wqxPLe/4OaMhFdisu68QGxbQqss7BjssZFxOqkeT/E/cutZCUNWD+tBzYO3Yd7r49eDiUTfi65BpMARRhvAglkOIFcLq5rufyp2KRUPiBl+BGmtDzdtdINEaYWF7hjOWZlTQk8H85aAur3SusLa9Gy5BHH9tC+CAvPjhgUWU3yAfwymBGutnb9UkNU1LebHbEBe+tWYfXKJ7Fn54dofG23DFKK0l2m216IFc0Y3vzA38f/vnrFLnQObHkSq5atws73d6Bxw07jqYs2iJVmUKTxQl8LdzsMriUsg2G0OC7tdRjuiLpFKXz9an0+sSb+cvGFAV6hro/WGtSzNtZ+xsWGKJoIfwon8yBmmmLT4HPz6pDD0XlEmmvghkQsYVHOJGTflguiycJ0R9S5mOJ0zzTznIymOA6F3+3TfCn8Pjj2I8CBXCBAEeYCVA5JAk4RyIVaYLFYWFa+WP06wvuW4FKuh6qp+C/lJuhFs9xCncq+6MWaOQcJ2AnY40utWEr1M+VkPGVg3iiJOYIfoiHC4AF03yLud34rSHDNndFN3O+iuyM2yXtXYNG7o1E6bSQG/kCs4eJe+FivxeiXpAjD8om4b3ExhleMx+BBZ4hLYz3qfnEePq+IT4T5DjbgcHMo9S7d/VkQ7aLLQREGZfWpFauPiNYe7azhcEODxM7pzWSsrGmHG5pC3yvsjm4qnqqpAY1NoXsq6todXQpF/EWbK6GYMIow/qaKTIAijDeDBDKUgO6ql8sfjDMlJiwkmYeWPdGe5CPepB/WtbIn+Aj5XrIuxkoA0mndK57c0Fy2uHoCkJOklYDhVqtZ1JXoMmIpxY3X1WaIsMU4e/uLmPADayaVjrwHNpcotzBEcK8LXVF0ERbJKhT6WmKWsGHYaremiJubcjf8JE4R1i7LZN0RQyw+KtX6ENRP+yDE/VG5MM7bOiNj3BGBRLIjRnFHdNwSZrojbi5RbrDtJ1Jx9WeCg8dNgCIsblTsSALeErAsRLmeMEH95TrPL3qccEu0iyn1vf6aMZf/g5n62vUPaXFeG0uMWbXQ1GPq64KbyuIcIfVuLOCcOkOO4D0B/Q9W6udZ/cx4ZUE2syNqiTlOlEQSK6biofuKccu7Ui9LLC2HRZzcOXYTznt8Pm4cKNas5gbUb9mEAwNKMain6UL21+6vY/aUASgyxtskcVTzJRHGDiy7/Ep8cMsalEvyhi6HdmJ97T2om9MZJUlZwkZiR8W5WN31z7ijUrIlSqKPtxf9C/66cjH6z4/PEpaQCBPrk5GYY8tVmFxTgYuiJeawiZHG56ahorJJsgHOMRJzqOQgKx7fmVGJORQHs07YH9DlzqW4dbxeJ2wmPhn1NO6vtOqE+RNz/CLoShjubuiEOyITc3j/2ye1GSnCUuPHp0nAFQK6VcKtOCBXFp7ioMr90gqkt4YKiCRNMAXc9jJUUKWIIW2P6+6vTFmftmPgxAkQ0N0P05I5NpCi/hK8PmkyttXtlhT0FSidH0z7rrZz4NWFWDR3IXY9JzFYPSUL4IS7MLlqnJFe3Le1BneOrkS/FepD+n6xog3BikOzDKtPt/efxJ8rZ+It/7ij5gzDngsks2JSIkwSOBzYjMdm/Bwbl8s6zhmHIQtmoFvtxfjEH2sUKaYo7jijiO6H8aSot2cZbMKu5TMlZb0/Rf30v+DXg9fjzkxKUe+/o75PX8KKB2qw8Zm1Zsr/oVdhcJWUCRgqX2v3WKWof6zHU5g93qwp5ooIa1iL6l6SCKVBxH+MHCoJ/Iixq4sEKMJchMuhSSAZAvqHisKah92JY0hmYR49Y2QyEwuQK/EbHu0hm6fpKBbYbD4jrt0koP/RIC0CjAdBAvESUCnrlYj0lxaI97FE+vk23INfrrwUNfNHGuUL2DKfAEVY5p8RV9iBCOhuNQU3T/LUFa0DYeZW2yGgp6zP5VhEXoLsJqALMP6uzO6z7BirV7Fu04Cav2GsuFg635qwseo8bCt5G9OH0gzmPF93RqQIc4crRyWBpAjkakHmpGDwobQRYJKOtKHnxHEQsO6n6so/FMQBjF0ygoBvq8QGrrwE91cPQxenVySWtop5fXHH4lK4nIrG6ZV36PEowjr08XPzmUSgo8aBZdIZcC1BAkzSwduQiQRU8h5lBTMEWAd0187EM+GaSIAEkiNAEZYcNz5FAo4SCElHzw8WjrLlYMkRCHFL5J1MDiKfcpQABZijODkYCZBAmglQhKX5ADg9CSgCTIbAe5CJBHS3L2ZLzMQT6jhr0ou60wLWcc6dOyWBXCZAEZZjp/t1c1vCO/ral/gzjc0JT+PIA92kgn177TtFeSFvf6cw9HtHFuHwIHRDdBgoh3OUQCBOUeovFc5dkDF11RzdJAfLaAIUYBl9PFwcCZBAkgRyToRt/qoFH33bmiQO5x772gGRkoygcm4HuTNS7855GHOKXrEjc/ZGN8TMOQuuJDoBKz5M1WejEONN8ZKA/keAgsq7WLrCS/iciwRIwFUCOSHC9ono2tdkWnOUALO+dpUcB88aAkqE/fD4gsB6Tzs2D5liIWPyg6y5Rh16oXp8WH7JVUbphEARbU/I7MeaCb2xx19QNp4pVYHZTSOk+G3vJ3F3v4moj/bQzJfxSNVgQBXdrQTKpUBuaHaxzajtPDdQHDeeudnHGQIUYM5w5CgkQAKZSSAnRJiyfm2Sf2wkEA+Bn55UiHOOz4+nq6t96IboKl4O7jABXYipwrgqNbg3QswUYKtXRtpQKUp3PYVRp4a/FxBhg+S9LdWYtG64Kba0Vr98DO7eNSPwunqmFn5RFuhHEebwVYo5nHHXJAti2/Y3jDtGC1hMZOxAAiSQhQRyQoRZljBawbLwBjq0ZN2y9R1/3Fg3W3yYNdUPu+aj97HpFWGt8uGiueJ2Y0kMMnfoEnAY1wnoQsy4u8o9TCxj7jVTgG2+dh/uv7GXNo1fmJ1jF0yRBJsItQ2jsXl+uJVLia5V/fSx1fNTgTkLgMpows+/DMuC5t7mO+TIdgGmEsKwkQAJkEAuEshaEaaEl7J+6bFXjKHKxSua+p7sroeWO+LxkrQjHRYxPQ6s4OZJhmsXGwlkCwG7EHPPKqYsUJehfkm8AkwnaD6LDeKOqCxhUN+vxyVNVbgo0M0SXJEtacHRIjwbxbKWLWeYqeukAMvUk+G6SIAE3CCQtSKMLohuXIeON+ZvvtfJ803TDdFz5JzQBQKWu5j64KyaEmP5Ay4y/pvX/AUlnQAAIABJREFUs1eKroqWBWwpim+eiG0x129zS1QiaehM46liQ8QhPKYsJAbMFG3mPLNQros11a/fbozWX6MIi3kiiXbQ/zil7lCR1KZjIwESIIFcJpC1IuyRvT6xgiWeWj2XD5N7i05At4YpS5jVVHyYl013Q2TdJS/Jcy43CKj73LLkESN2J9mm3BmVW2PkFsmCZe8ZHrO1rboamyAibMQ+9JlvJvQY/WF4/FeoK6KMG6fgUrFktVhgc5FMlkDuPacLqkR2p/6Pnk8Blggy9iUBEshiAlkrwl74vFkyIbZRiMV5+bzMBpjp4njS6UVpyY5IN8Q4Lyu7ZR0BJcaUEGt9U2xJn+431m9ZyGJtJlERFi6AbCJMCaklfTEal5nZEQfJ+9USD3bz7qBFyxBbqzDYntQjTIRFjkmjCGv/VJMVYWpUlYiDcWCxfmr4PgmQQC4QyFoRpuCrD/t1nzUzJX0KNzGaOLOSW1hD25Nc6M+p2Cq96QWVreLJev/2RFqkwtH2wtDfaBZQ+1iN/sLTVqyg/X2Vrr7k5MK0iLBAumX+pTeFG8tHOxaBcEtYLBFmZUW8ZJ0/Rb0RE2Y2M/vhUpS+OzFCsg/pYBNhRvbEmy8MdU/0jxNmRetYB+P4bkOyb1KIOc6XA5IACWQegawWYe9+04r3vmlJSYS1ZyGyC5FUCjBnunXIq6sZK4uher89URdtnZbY09+3BJ0u4nQBpwSZV1kSW+ueN1Iu86+8Xt00zpMbBMJFWHhGQ90SJpar6pcwsGoc6q06YZoIMxN0SOzX9Utxf1g9sFARVmwIMERIgZ94zbLcOAv3d2EXYiwM7j5zzkACJJA+Alkrwp76xJeS+Eofcs6cKQRUZkQvYsJ01xymo8+U0+c6spKAYakKFl6+KJD9MHw3IXXC/G8blrBZ5jdmwg497b0mwjYAtUPf0ASYLfV9NBGXlVAza9EUYpl1HlwNCZCAewSyVoQxMYd7l6IjjHzJCQWGxc2LFPV0Q+wIN4p7dJWAJr6CwkvLaBihZldYsWaVLTHQz3o2mAkx4HoYJsBc3RkHj0CAQozXggRIoCMQyFoRplwRVXIONhJIhIDlDqmSc3jRmI7eC8qcIxcJmKJotbm1GJYns2+o66ApwszsiKslDiy6++FEYMk2DH52DU5Z5q8jZrO4ReMb0ZqWi4eRhj3Za4bRNTENh8ApSYAEXCWQtSJMxVip7IgfN7Ua/1WNcVeu3pWcGVwJMWUBU/dlsFjE3MocSTfEnLky3AgJkEAaCFCIpQE6pyQBEvCMQNaKMEWIaeo9uyc5O9GY4kLXknNYbojtp+DOWbTcGAmQAAmkTEAJsdYX1hr16FRiowKpKadqibGRAAmQQLYTyFoRtu/bVtR93pKU9cuyfNBylu3XN7X1q7gwZQlzo9EN0Q2qHJMESKAjEqAQ64inzj2TQO4TyEoRpsSTSszBRgKpEvjN9zqlOkTY83RDdBwpByQBEujgBOxCTHkYFNxU1sGpcPskQALZTCBrRZgq0qzaviYzHoyNBJIh4IYI8024AeoDQ8HNk/ghIZlD4TMkQAIkEIWA7mVAIcZrQgIkkM0EslKEWcBVTJjKkqgaXQyz+Rp6t3Z1T047Ns+1hBx0Q/TuLDkTCZBAxyRAIdYxz527JoFcI5DVIuwP/3s0184jJ/aTyYK4d2clwvLxQ8mOqIt3J8C3bn8DzRW3G0OxKLMTRDkGCZAACUQmYAkx9S69DnhLSIAEspFA1oowFRe2+auWiMwbfUEXxa/FazFnEnB0KcCVxwGfSUr+I61t2Hk481wxu32nAJd2Br6UtTVm6BqtS6PEolP1wvQ4MH4gyMZfhVwzCZBAthHICSF2cDMWXX8DtkiR8KLKpaiZNQxdPD4IVVOvdlb8kwYLpgNGjb5dM/BI1eDAAMZrz46OXJsv0KsBO55ZiBVzH8Xe13YD/Qaj+LpyTKgch7O729fSgPXTxmDvpBdxywXxr9Ps+SYeu/wJ9Ht+DoZ0TfTZyP1DahhGHbIUpbuewqhTtQ5bqjFp3XCTlfpaFZCP2oKF5AGvWMXi4zzLWDPm+vtZK8Ksg1HuiNHEWKTDc1yQHV+AkeLe5mRr/LYZr34TPuJpPYtww3HmXM1HWrDg48gi1Mm1JDZWPv5vn0L01RIOfvlNM5Z8brqMJtOUUFJn5rR1zXJL/OlJhcksK+wZuiE6gpGDkAAJkEBCBHQPBJXCPtuKOvvWVeKXNWfgt8vLcFIT0KOH/BUzE5pRsHw3Rjf5C5hHWVO4CNuPNRN6Y8+0ZpQPiraR/VhfcQOW7bkKt1SXYWAfUV2Nu7F1SSUeq+2O0n8sxag+2rPbazC1ti/uX1SKbkmw2fv4NXiw4fdYMG1AEk+HPxJJeIb22ozaznPRpz0RZhtWCeFV/fbh/ht72d7xllUsQE6zjDVfrr+f1SJMfTh/T0TYpigWMU8O76Qi/OZ4Z0XYl98cFeESjHMz95GHIVLT6vtF5ndfH25GXUOoJaxbkazj2AIM75qHZKXFZ1/7sOGgmkHGKc5H2B+k/FDb/FMfamrB4v2mGDxNWNygs2hpxYt7mvGOgwdhibHvyAaVlVP9V28GA2nKGmp9bX2vW0VVsWY1lhMp6vUPAUXLnjZq2bCRAAmQAAl4Q8Ao6jxjqpEQSf3+zaaEHbE/0HvBMIJwiiDCIgmFsPW3Z+GZ+bJhBWp8bhoqZvdC+fMi8GzWqV2Lr0H1uvGaFa0JW2aeic1DP8D0EUkK1AOrcd/AbfjZ+7/HoCSH0E/BEUuYPmA7gtdzVrGum8MsY02X6+9nrQhTFjCVmMPrFiYCehRiTJdQESZeeIk1edyMUDLbt0dbsP2Q3Y0yH5eclI/j/X0OHGxBfYR5Dubl4/+kIMK+PNiM179Vk+TjxzKfeD+225p9rVjfIJaugnz86AQRbRqKFgFxSN6y87C+PyLWvH9PwUqWGOTIvVPNjkg3RCdOgWOQAAmQQGoE9BT2xv/BJIW98c+Dws71z1XiwcoaNO7qiy433YqS6VMw6pzuAVe92T95FX+cWoP6d49Ft4r5uKN6JIphCp/VK7V9X7/UEB89ti/Gg3MWY+/KzfBBjfkb3DZnCs6P9lfR1ND5n1bWm8tQv8RvjQkRBv61nmOKKKNFEFsXbXgZGHoZsCHcChYUcDD2vXXsAdx7XYQNNb2EeT+oRvH6FzG2n8zTsBbVvdZi8P75GG50N61Mp7wyBZ/MmoxtdUC3mYtQVTUMPnUOU+Qcuo7ERfOXonyENb5a/8XYNVmE3NDUVVhs4WyzhBksJ6JePye/IFUvtWcFS4mV/wxLtvfCxvEzsUvuX5fJv8OvxfrYzxC/6WfpyNXN4kGyVoSpYs1P1XsvwsLO2mYJO/JtCxbWJ+YmOLC4Ey4/NjiyZQkLmeuEIkw9IZaFqw3vfNGGs07MxzFJXsqPvjiKpxvVw4W4+Xv5+G6Mccz9tuLy3kUYmGDJrWRYJbmtiI8pa5iyhFnCOpmxfZKIo00ScuTJ/+iLah5OZgg+QwIkQAIk4BCB1rrnodzDlShTTVnGjHpiykLmhiDbtRh3Dn8Jg19YgBKJ/znw7lpsbRqG0qG9TBH2RBNOv2AKbq0Yhh7NO7GmchQ2nvE0Zs8cbMR+RfxAv2sz6g72xOB+xejSXI/NNRPx2P4ZqEnSHS9+tJp4QNAdEVFd5ULXb4mJ0bt6Y9OIUCEWFBofRnbVCyxSxX/1wOaSA6i6WkTUVomdmiOuiMvHiXC1hMPt2Dl+PG4VYdofm/Do6Ctx4LLf4bgzr8ctY/vLMzW4r+RDjNq3CCU9zIF3Lb4Sfzz4YEouifFZwOy0tdgwPSbM6hYQaKW4SELE6vst0FwSo7g1xsvKGLsWh6eV4bbK8ejTIvfvd3L/zl2DBRXKNVONnx6W8d/J3O6ZtSJMuSI+9Ulz+pNuuOCO+PVhn7gayl93/K516gp+r3shzvS7Ika/km34+MtWHJB+umUtkSt8RNz4dhu11wpQcoq47FkPy0uWtCzQrF1HxR3x7y35GCGxalooWFxTplOEqYQcqYgvtUH1P/vmOQ8Y/5NXbohsJEACJEAC6Sdgt4o5saKov+dVvNLkJtz2ShXOt7nHGx/aay7B9C0VON9ahHLn6v0EBvrjhWJbVeRB45mXMCRgDXJiRzHGSDomTI1rWs42XxuMcQqIsMteEmGwCoPt8VLacnTLkMHnfUn8IaLVbKZwOG7L64EkHUZcXVUvjfNurL7xLHwyXYTgpeZThlvfymGYvbgUfl2WJES7MIollLRpwkSYaX2EYUFUMWQLgEotns44gxRYRXr+1Xsw6YG+qHpOrGFpZ5nkEeTQY1krwtQZ6HXC0nYmLoiwMEtYUQEm9C7AyTFDz8QS9r8+vOgIjFBLWHBNoa8r0QYRi7rlrbmlDV9HMAYep/ppezgkcW2L9ieftMOJbY6ROLvekrI+0aa7ITIdfaL02J8ESIAE3Cegfk8rTwUVt2t9neys0f/Y5k+cUHcC+pWXofS6kTj7VNPlLbLACo2/itynAXvrVomr4pPYs/NDNKrsgbAsKuYH9236RvxujMXtuL1FsuIYWQ4RK0tfJGLBzH3RRaTa51RgjpkhMFlLWPj4EUSPEjfzxVomrpymtSxcBBrukyF9kr0JEfjL2Sgr1rZZq22D2jIkWiJsxHrUogqXrJOslFAunghaBzUL5EV+d8GwBB+BWUKthmGsIgnpkNfSzTLZM8id57JWhClL2CN7fek/CQ/cEU87WRJeSJyX0SSg6tUP29BfcxW0i7b+sqZBSfgjfnnIh799ZSGNT4RFPABZ45aPfXhVO55uJxbhpm6aO6Vk9ti6z4d/pPkIkxVhdENM/48eV0ACJEACmULA9/GbWC8p1+tmP49uczbi3hv7JinCmkSwXIFF745G6bSRGPgD8bQQl7vHei1GP7/16HBDg8SK6a0zunVXwq8JhxuaQt8r7I5uKv6nqQGNkn1Rb0Vdu6NLtCxeKVnCrFmCsWTluMyf/S+xmLDMFGF65kNLyCgrVlB0QvGrBMoDwlCYWHF0Eg+meJgCTFn4QsVQcM9nJBQ/RxGWKb8N4l9H1oqwTI0Jix999J52UdVXRNUoyTqofleaLnx5IfFa9v72GLN41xSalbEA158ezI6oLF5f+q1b35WCxwGNpzwXI1jo2kSIfXW0DaqUWaFkIewhVjD9d71PrGWfyvtW+47mehnPer/WasFZ/RttIYLfiFC3NyeyITIdfTwnxD4kQAIk0AEJGO6JwBRxQeyuXOkeHyauX1PE9cvfDkriiXNqJPHE34zEE3GJjJgWERc4JyjCdFGhW93MmmKh1r9EMv5Fdke0pX+PwxJmzFk3EjXzRyaV5j5IOLIlzKgJts+ytg3DVluafpOJ2DOtfla9MGNgu0VK8VqMU5ZVoV8CmSTDWLlkCXOOpQv3NsuGzFoRpjinK0NiyBl74Y4oKmdgcZEk75B4rc99+I9volmpzJWlKsLMUeJNzNGKzzrlo1jS0X8omRn1uLXm5lZslXT353aTLIuaUFMZFdd81AzlYOF1s+qCqaQcyTS6ISZDjc+QAAmQQG4S2PvEZKxoLsPYaweguHMTPnj8Njz0TpnxYf9wpMQcVWNQ13l+QAyEi7AdWHb5lfjgljUolyQTXQ7txPrae1A3pzNK2omjcpxuPCJMc38sNrIqmlau1XoWRWNh9hT4fhfOd4dh7PxyDNHrhC0pRunzi4J1wlRijhrd1TA5F7rIiTkiuC3GBNl+TFhAgGrZDw2r2BLZg1bQOnSa9uLKUmDlkghzIslJTMwdpENWizBlDVM1wvYZiSTS1I7JR/+YCTMSW9sRESm7j9ifyceVEhT22mctaLQJpFiWsC8Pi1CKFHol1qf+WpBW6DjxirAWLPumDd89KGs+Vp7pJRkV24tdE7H2D0mosjXNbogqKUfJSQUJx4NZbogq9XFh5V2JHSx7kwAJkAAJ5BaBhh2oW/gHrFm2GId39ULRjRW4dW4FBkn2B0tghaaol3iqqnH+FOGR48YOv/8k/lw5E2/V7UZRSQVGzRmGPRcsDi/+6ybJWCLMcK0Td7sYxZzNJVoJKPSMiQ3YIe6bK+Y+ir0q5q3fYBRfV44JleNwtp653khR/ypGNEmNr8BYiVrCzNipt687aKs1lkBSDTV3pJg77QysFP1mvJ4tHqzds4q1jiRZuSLCorF08zLm7thZKcKsIs3WsSiLmHrNq3budwtxWrLVkBNdpFiTXpW6XcUhqQfzcenJ+QGTeuOhZrwqdcWMJm6Ax3VTVrPgRMG087bJbVa8UBFWgGt6aynq8/Mg2w60Q+JKqHRiWK2v4wtR1kPWFkmIqVixeokVCxOYiUJxpn+i8WB0Q3SGO0chARIggY5AIK7Mh5kKIpYIi7HusEQgumUooT03oG7yFagvD2ZDTOhx1dmoPbYa5223ao35R4gUt5Xw4KaAgpGYw+9uKIlILOvf6pXBJCbRh44lwuJdlAOsYk0VjWWs5/h+RAJZKcLSHQ925WmdcK7D1q+o91OsYv9ozg8RVe3eZen/mqSM/5FWj/Czr33YIG6Bqulp73F8AX4q8V1WO9TUjFe+iTJ6SF9Jhf95C971dz1e3BF7ikWtZ6c8HBeHl1+ziDGpCY0DTa34QsTzOwfbJF28Kk5tDui0oNYLbKv9q++Pl3+JuCTSDZG/QUmABEiABBIhkNUiLJGNutzXt+EeTJUYqgWzhkmSksTbYUlhX7FhZNjz6nxqodflSnzsTHsiVVax9hONZazn+H5kAlkrwiwXRPsH9kZbwgbrg72+/VQ/5Ge6CLOLtngtYQ2SHXHlFyapAT0K0U/VGxON9sU3zXj9mEKM6WIJNr8IO64Aw+W1VIyCyoq3+NPE09RHElZq3UpcdfMvqL3U898uuTbx3wkHW1B0/EgU3nR74s/yCRIgARIggQ5FgCLMqeOW2K2yqTh811NGMpPE2pt4rGQueixeaqTKz/2WCqtYdDoay1g8Un8/K0WYXVClWnRXjWcJMyvrnp5pz8qyZ/U5Xiw++Uo3dM7HoGODwuQDidf6H21xJ4saGGilERTrz9YDLfgs0TOL4F7Y7hARLGcqs+GhSN6aNhdD3R1RF5qGiOtUhN9IhkazWfXI8vF/+xSib6QqzZL98INvWrDlUB4uOFHi5sRSJvrI1iTRyGeSaMRvpYu2r/YEl3rGEl3qayvLYqw7kZQIk/ELB4xD0QXjEj1F9icBEiABEiABEiABEiCBAIGsFWHRMiPqH76Vi5veQlzxbJcg1od2ZWEJayLCztFs419LgpCv/Z2aRIScIO+faAkUqYu15zBwnPQXnRTWfPK+1az3VYKOTV+br4dY72yxXHZLlxPZEdsXYcHl18ueiy2XRhGMXx5pw85GEV8qN73eivIx8Dv5OEv8FSUfhinIWsXV8kNJ0uHiD6T9XPU7oe6DlS0x1hJa97+No6/MQ9vBz9D5+r8gr+vJsR7h+yRAAiRAAiRAAiRAAiQQkUDWirA//O/R9B9pIunpleAQq9DlAWtS7OWbNcH8xbm07v17FWGk5hr4gSS7+Jsk77CalyLsIyke9olY1E6RHPTHJZAbpUCsafWStXHtl4m7IsYmF18PFRMWrwhTI/q2P4nmN580BNgxJdUUYvFhZi8SIAESIAESIAESIAEbAYqwVK6ETYRJIsPQJtaegAHNQRF2ZW9JDNLJP5VY0HaKtew48Y98+nNzAad1L5D3/ZY7tQYRR7Y6xhF33fitZFn0J+aI1xJmWuHiS2cfMqkHVrD2jlYJMFW4OZYF1D5G08qfG9YwuiWm8oPDZ0mABEiABEiABEigYxPIWhH2yF6f41n0Er4KISLMipMKjhJikVKio74Vh8R179xuBZLivg3KivSOpo4Kjy3AMLGUWV6UnzX6sOwLu3mpAP90RgGKI2QhrG9oxr8blqU8Q4j9WNz/imWwLyWxxhK/QNP3eK5Y1K6UmLWPxCK1paEFH2m1u2LFhFnxb4eOtMpz2SXCessZnHasKcISbUqAHamrMoTYMSUPIL/XeYkOwf4kQAIkQAIkQAIkQAIdnEDWirCnPlEizPl05gndB5slzKqdpTIKSngUCgokU5/1OV9eeG1fK048pQD9LJUlr733RTM2KVfCwnyM7FWAUyxxJTFlGz9uxn/bFvS11OGaekL0jIQffenD00cKUCYqrZv1rKrP9bHU59ILJBcVYELvAkj9Z7PJej/6SqxaDea3sUTYO//rw4uBtdlEmLK8RXJNtFsGXY4Hi3WWygo26fTEE97SLTEWWb5PAiRAAiRAAiRAAiTQHoGsFWFqU9GSc3h25InGhIno+J8TijBRRJTlTajU2gdft+I4qcOlF2T+8lALXvcnt9Bd5vp+pwA9NQPOIcl8eIwkmAjkIBHxc+BwC749RlnbgiR8kuRjq9Tjslp3SS/fP7AIeVXW8fr+ZkjdeqNdfHIR+vqfN+qMFYamqG9PhEWLZQtJ7Z9md0S1x2RFmHqWbome/ZRxIhIgARIgARIgARLIOQJZLcJUxsD3vjHjoPTsgVatMLeK/wZugc0dsV5ETqN2RY45Jh99LUOLJjr6ynOjNLdD+61SImaZJOTQxzL6iBVs8kn5OM56QOLBtu9rRmOPopBizkeOtGD1l3kYqVvDpO/WfT78Q1nDxAr2T6eGujTWf+XDv38VFGmxLWHN2KmScYg1qbApDwNPzcd3/etyWoRFituKlfky0jN6hkuV1r69OmKxftJ1t0TGh8WixfdJgARIgARIgARIgAR0Alktwl74PJ50E8Ht6oWcHRFoCcWESQINKdbV2KSSX0jtrJ6FuFxETFihY8nusXavCJywe5qPa04vxJn6A0dbsHifEmvB976UgsL/IfXKlIAbdEonXNrZP5Doq3qJMfv3L9tgxIIFsiuK6+DRVvyHiLmPtDl1EfalxIwd6pQfYlkLdlWxcG045XuaCBMRuL4x3B/xrBNk/TZR+j9a6n8lrKKVEUgkgUa0Ytz6+Y85JXE3RPuRWG6J6nWmrecvVhIgARIgARIgARIggXgJZK0IUx+0VXKOtDSxcA3qKqJDEjyoIsRWUzFhKh2iUZ9Zj3/SFvnZ11KwWWpmnSXPao+GbkOG+bJJEl5824p3GlqlwLNYmopDrV3qgZD6YF0KcPkxbZDax8HWqQDDJTCsUcZRAtAo2FyQj0u/K/FigWXbEoQkWhzaKNwcKsLiOpM0uyOOkYwlqrBzIuIu0r6O1N0FVUOs4MwR6PTj6XFtnZ1IgARIgARIgARIgAQ6NoGsFmEffavcEVuwTwoGx9OsD9zRLCXxjGH0ObEIvwmqmLgfS6ajymz4QmsBbpD5QqxmEuP19EfRrVfJzGU8I+MuPpKHsq4RilNHHDQ7RZjaiqoRplLVp9LolpgKPT5LAiRAAiRAAiRAAh2TQFaLsK8lKcV7B82YMOVqplzZHHc5jHQvukps1slabFa0u6O0oZZ9sFGsd8fpSTTUcxKr9ZEk5vhM3P0uONYmtALWojwMEkvYpcdaE0kyj/1SoPlw6MQhiS+Svc8iwv5wOK9dkanqobWIxeyQ7Ocz+ffRZ2Kp09wR45o6zZYwJchLTipIKS7M2ifdEuM6cXYiARIgARIgARIgARLwE8haEabiwVR2xPQ0Se8utbqOEQHSIgtQGQqVq1+j1MyS0l8wa2dBXAg7BRNmGKKjFSdLysL+KhxJxNdnh+S1r7T6XJLR8EpxFbRcFRsPNmPxZ9Yegy6J0ep+OSbCvgbKThALkezviKTK/1L9k0yNn4lA230kEvHQFPUqMUi8MWFb03OAxqzKCqasYU40S4ipumHKLTGv68lODMsxSIAESIAESIAESIAEcpBA1oqwzSJeNsm/TG4XSAKMyyX2y2hKhEnCje0SuzW8s7jwSVHlz6IuXooJS/bE4yQubGdI2JvEokl6+52y77DMiWkFYYpSKzvioSZJGLI//GwG9SwyBajBQ2qXfRIpAYl3G3FShKlVM229d2fHmUiABEiABEiABEggmwlkrQhT0JUQU9awlGO8svkEufakCKRSIyzahCpBh0rUoRqzJSZ1LHyIBEiABEiABEiABDoEgawVYSozIsVXh7ijSW1SiSyV8t4qRaAGUfflkhMK8EN/Mo5UMyNGWpjllqjcEY8pqaZbYlKnx4dIgARIgARIgARIILcJZK0Ie+oTX9xZEXPpCGMJB3sRYyf3rgsaS9Q4Ob4XYzmRETHWOumWGIsQ3ycBEiABEiABEiCBjk0ga0WYckNU6emt5kjx5Q5wF2KJOB1BLloae1sxev6NOlG02X5tlFvi0VfmQaWvp1tiB/ih4hZJgARIgARIgARIIEECWS3CVIZENhJIloAbcWHWWuiWmOyp8DkSIAESIAESIAESyH0CWSvClJXGSsyR+8eUOTuMZklLxg3S7t4YtGrGV3w7FSpjigvxHanZlohlMNH56JaYKDH2JwESIAESIAESIIGOQSBrRZg6HiXE9ILN1pHpBZut1+yFnPXjzdZYJ7uA0IWQ2q/V7P2Ol6QVAS62MllKmOjNTZGS6I9YJPdIdf56a9SMo9/I/bDuif1uuOGGaN+Pckc8UldluCUeU/IAVA0xNhIgARIgARIgARIgARLIahGWDbXCkrliscRVPMJIF1rtraFbjFrFdlFmHyuetSTDIFeeoVtirpwk90ECJEACJEACJEACzhHIWhH2h/896hwFjuQKgVgCrT0XRt2SF4/way+JSCTLqDWmFxYxuiW6cr04KAmQAAmQAAmQAAlkLQGKsKw9Oi7cCQK/+V4nJ4ZpdwzdLbFwwDgUXTDO9Tk5AQmQAAmQAAmQAAmQQOYSyFoRFg/SVFKs22ONrPn0mCPrNSv2SF+TNbfdCsNU+vGcnDd9vKgZZu3EcktU3zNtvTfny1lIgARIgARIgARIIFMJ5LQIU9AtMWRA8bWfAAAeEUlEQVSJKktE6cIpkmDSk3WkIuYy9eA7+rrcTE8fje2RurugaogVnDkCnX48vaMfAfdPAiRAAiRAAiRAAh2WQNaLMFW0WQkq9V8rxkgJKLeEU6Q4p0ixTdFimmLFSVnCMZ5+sW6tnUGk2Kh0pomPtX4331cp6nsfm+/mFGFj0y3RU9ycjARIgARIgARIgAQylkDWijAlMD76tg3vfdOCfU3O15WKVwS5JfYy9sZk+cKUC+Jpx7pbH6w9RHRLzPILxOWTAAmQAAmQAAmQgAMEslaE5Wp6egfOlEO0Q8DLOLBoy7CEmKobptwS87qezDMjARIgARIgARIgARLoQASyVoTt+7YV7x1sNY5KuSKykUA8BM45Ph9KiKW7MW19uk+A85MACZAACZAACZBA+ghkrQizkCkB9sLnEgTGRgIRCFhupUp8qQLWqji117FgkQ5GJehQiTpUY7ZEXl0SIAESIAESIAES6FgEslqEKWvYU/UUYPYrG2/ykPauenvFkiM9115BZHv/SMlAvIityxQrmMXDcktU7ojHlFTTLbFj/e7lbkmABEiABEiABDowgawWYeqDe91nzVCCIRtcEnVxpGdU1AWPXUAp643VlBXHat+RPQe+1vrk0l3WhZlet81eq01lx9T7WoLQXpMt00SYOiu6JebSjeVeSIAESIAESIAESCA+Alktwqwtqg/gj+z1xbfjGL1iCaVoIimSQIo3w6IjC+cg7RJQdyQTz0O5JR59ZR5U+nq6JfISkwAJkAAJkAAJkEDHIJAzIkxlS1QWEMuqRLHUMS5wLuySbom5cIrcAwmQAAmQAAmQAAnETyAnRFj822VPEshMAnRLzMxz4apIgARIgARIgARIwA0CFGFuUOWYJJAgAeWOeKSuynBLPKbkAagaYmwkQAIkQAIkQAIkQAK5SYAiLDfPlbvKQgJ0S8zCQ+OSSYAESIAESIAESCAJAhRhSUDjIyTgFgG6JbpFluOSAAmQAAmQAAmQQOYQoAjLnLPgSkjAcEe03BILB4xD0QXjSMVlAoq53toOfhr41v6eqummt7yuPW3fh77v8tI5PAmQAAmQAAmQQJYSoAjL0oPjsnOXgOWWqHbItPXxn7MSTEpAqf+2HjKFlfma9XV0cRX/LIn11EWbFeenXss/7uRAcW7G/yXGlL1JgARIgARIIBcIUITlwilyDzlHgPFhwSNtT1xZosvJC6ALJ7uly4351NqtOdV8+vz63lU/Jm1x8qQ5FgmQAAmQAAmkjwBFWPrYc2YSaJcA48NMS5biwGYSoIsqbwIJkAAJkAAJ5AYBirDcOEfuIgcJdKT4sNb9b+PoK/OMU7SsT8oiZLgWyntuNXuMVzzzWOvTY8es5+wxZPGMF28fWsHiJcV+JEACJEACJJD5BCjCMv+MuMIOTKCjxIfp+/TquOMRYG6KqkT3WXDmCMNVsaDnuawjlyg89icBEiABEiCBDCNAEZZhB8LlkICdQK7Hh6n9KbHT8sE6Hn4cBJQY6/Tj6XH0ZBcSIAESIAESIIFMJUARlqknw3WRgEbgSN1dhluesoQcU1Idkrwh20FZsW/ZtI9IyTuCyTWCaepVFkSnmpXxUY2phBgbCZAACZAACZBA9hKgCMves+PKOxiBXE3UoSxgVjxYrh1prLpiar/22LJILpCMB8u1m8H9kAAJkAAJdHQCFGEd/QZw/1lDIJcTdXy75NqsOYd0LdSoL9brPBT2G86YsHQdAuclARIgARIgAYcIUIQ5BJLDkIAXBJTVyIqhypV05VYGxJZP32FcWByXiDFhcUBiFxIgARIgARLIcAIUYRl+QFweCdgJKBGmxJgSL9kuxGgBS/x+q6QcjAlLnBufIAESIAESIIFMIkARlkmnwbWQQJwEckWIWSLMqgkW5/bj7hYpDb1V50sNEh6zFZ5IQ0+uofePFLtlJc9Q79nft2K/4k17b7kfGv+VZBzW93Fvnh1JgARIgARIgAQylgBFWMYeDRdGAu0T0GtrZbtFTO3UFC6fBsSLEjSWYNGFS6JiJpPvkYrxUuLKEneqBphq6nU2EiABEiABEiCB3CVAEZa7Z8uddQACuSDE1B4sEWaJkEgp4PXjbM8iZRdpupiz5rHG0jMTxmuhcuNa2fdrF2XWnNbrFGlunALHJAESIAESIAHvCFCEeceaM5GAKwTsQqyw34isqSPmRnr6SC6IToFPp1DT93Dszc86tSWOQwIkQAIkQAIkkAYCFGFpgM4pScBpAnqMmEraUHTBuKwQYqo+mBJirrbjr0anK29FwfGdZJqjaPvgX9H0yusxpyz48R9R1PUt+OoWowU9kX9Gf+QVxHws2OHQTrTs/zSBB2J3NV0Xe0rB7gdid2YPEiABEiABEiCBjCVAEZaxR8OFkUBiBFr3v20UPVbWGuWuprLouWkVSmx1kXu7LcLy+v4CnQZfjXylv6zWfDTyYppEcK2chWZ5N/+iOeh0nogu1fPbnWje9CryLysLHScGgLb9i9FU9x9OYAqMoc6VAsxRpByMBEiABEiABNJCgCIsLdg5KQm4Q0Av6KxmyPR05rorpaNEjh+Kokv/GYW9esY/7FERYU/ebYgw4HsovOJeFJ16gvl8w+to7XKxKcLaRMS1+IfNkxcs61iLvN4WnK6t/lE0rX8u/vlj9NTjwdS5spEACZAACZAACWQvAYqw7D07rpwEohLQLUyZbBVT1jslHNV6HWnielh06VUo6Hka8gwzltna6lej+YAvZIq871yMgtO/5+/XjLZPVsH39na0SoZGs/VAwf+ZjqJe36J5y/vIHzwS+UUylmbhyvtxLTqfeRrQvBO+ZZV+AefITtodpPP1f8l4K6cjFA5vxqKfj8Hm94Gif3ocf7hjGHbMK8Kqvh/hgWt7OTJF+CD7sWbaadhT5kP5AJemaGdY36cvYXntH7DxpbXwHe6Foh+MxODps/DP/3979wJlVXXfcfw3c2eGEaWMD0CoKChSydKBFlQeRQNqlRoo2KplCVJYoYSihdGGlBCRYggrw5JR1BjRyBKpqEmRag1JUYygQiq0ONJAGh4KDY8ICXTCCHPn0b3PvYc593KH2eOcuXNn7ves5WIe++xzzudc1uLn3vu/rzdfJ5/3yzKVvHCV5n9nlDo73epJbX18uJ7a/YAWLh2v7v45FWu18MtjtPuMPhZoxtY5GlizTcvvekl9XizV8I5OF6IRAggggEAjAoQwPiIItFMBu9bKjjTZkGNHUew6Mb8keqY9cnibNg9Swdh/VKRzfP6hnXqYl7gWLKf3FGNxi2lzboyh5rBqPl6kqo/2JIa0i4uVc6hctd5Px6rD+Nh0RBvCqqMm7HU3o2QR8wMb9oKjY7Z5YGpjGNbBaaV2zV9bKr7SnOePvj9b077fW19/ZrK6mFd5UVGhCRHtN4RFf/m05n71JXWZuVh33zxA3Tue1MFfrNYrj0zTpzdsVOnMwarPQMf002/cogOTPtTkLzkqH16lud84pOLi1To4bJ1mXV+Y+kQTfp+aeKc+m7BBc8f19sLfvh+NUWnFAj05uRWSqePj0QwBBBBoSwKEsLb0trhXBJooYAOYX7TDnpqJYcwPifV7gjW8V1hwH7EGKXrcrw7XdVPt9ucV3XVBIJSZohynjEGH+gVidcfeVfV7j6r6aFJvPe9X4Y23KKdyk6LrFqm6IimE6W4zQhYPcaluJGFqY8w9eZPo09ML4xsx2258i9i7qp9K6ZfStz/L9HV+TfyInrX5wdfv0ty9D+h5Ez78o92GMG+0abQ+nbRB88f0TnSpfEeP3Tpb+U9sNKNz8eC0/3nN/qY07cUpusIJ/aQ2L75Gm2/4WLN6vKTZD5lzf2DOTS42440+TtSBO//9dADzuj/2muaP/i/d9vYCDQ6usXS6No0QQAABBJIFCGF8JhDIAoFg0Q4/jGXKiMqpn86Vvb9UR0OBw6lUfKdiRXoNUaTnUEW6xNd2+Rf5fI8Z/Vqqqh2Jo1/+r/NuXVUfsqr2qHrzz8x0xMBImB/Cjq/T52ueqL91Mz3xHDs9MSmEhfURs0U5smOPsNiUwNXvB+SGrfCm0B1IHgmr2av1Tz6sV360ykzf66XOt8/R5K9PUXEnaffLY7Rwb4memTMiMJXPhpErzZTGDSr9KxN2KrZp5byJWr9hp/KvKdEdj0xXdHHf9E9H3LZIUx4q1Kw1JSpOUYXTjkTN/1X9s+xYfq2e0rOnR6a8cHrph7pt3zytXGGmMnYdpYHfWqEZw4piiJ+Y0DbfD17xQDbUBLJhgdGwShME779Tn34lKYB5Hdh3cq123fOrhkfQwvqg0w8CCCCQBQKEsCx4yTwiAr5AchizP7f/qM+9+Grlxkdk/BGYdI24hFkhMffqOcq/4hLldDQjRgVn/u/6ugoTuiL2942VqzeFOUzg8Ua7avar5t11yolXR/SmI/ohLHkaol+oo4VCmH0n/hYE2fCpbnwkzASDkmv1kx5LVTJllC4956C2vjBTy94aolmr5qi40oze3LRWQ95eplvjWURVZlRpyNPq8+NX9ZWL9mp1SV+t7/m6Zs8YoYuObtLKx5frUzNtr8eD6V0TdvA1M+q3L3HUL+Edm/Vf9/2DNOONEvWzgajErFu7x9zjoFgrG8KWbxinfjOXavKgQh3ZskSlJYc02n/2qmM6Xl2kzv58xuTvZYLZkiu17J8Pmd56qeOIB/S3D0/3wqx/7H75z1T2eSlTErPhLx/PiAACLS5ACGtxYi6AQOYJ2DBWvXu9NwLlNKqUhkfw16vZ+/GnHfpBMHnKYoO302eeCocNipWW949Th1V7+F3VHOmpvP5D6vf6qjLTHiuTy9X/r6r/1Uw/9M7tpryRc5T7G7NebPuQxDVhrRTC0vAa0n6JvD4jlT9sVsrrNhrCUo4e2bVSXbRpxGeaf1uhNi7qpDeu/J/YqJc5vHVmrw9R2XfHqXOq8+00v7HTdNkP0hvCbIh6ShsTpl4moNj1XH/+ie6whTJk1mwNXKLub7yqO3rEWp15vgmY0/pq370ViaNdZ3nD0YpjqrSVPyt26o0ld2p9TWlCAY/jb/29St4codKycaZsDQcCCCCAQHMECGHN0eNcBNqBgA1iNYe3m0C23Xsaf/1RpoSzphEXq2C0CU4F+1V7oFw1e9ep7ryxyrv6y/WFOM7aoRn1emGG2dI5FsJyzUhY7SE7ZbGBNWEVm0xBjw/qe7xkggp6mbVcLTQSpg5/IJ36v6aRZHjr5oSwVCHNPm7w59Gfz9O0J3tprrd26qQXyt7+YxvQihLa1TPt1SsT++qIHQnrboPPvToYNLw3FpS8a/zTawm6A+PBzQtEK4K/Gqc77MhbNxuehmtr8FfxaZZq0khYLIRd5vUZ6yzVWrlmrZ+rXKvFw5frikDQkw2tz/dKrKyY4Z8vbg8BBBDIVAFCWKa+Ge4LgSwQsAHQrgkL/bDrwa683VQRHKhcb+ph/DChKWpCU/12XgXK7WP3E4uvGTNrvKrMGq/YNmCmOMckU5zjlAlm5WY6Yv/4mrD9ppBH/teaVJgjzOezo4O2RH02HI2NhLmEMNmCF2OnSt81VQT72KmIazVwkym1bj4Wqc+PjSAdnG5C2DUnVVlxUgmbGxTEp/TZ6XyViW8hv1OROpr1XNFKM6KUNMja0fwu3/yu8tixxP4ihercyazLatKasDSEMG+0bbgUHBEkhGXDXzueEQEE0iRACEsTNJdBAIEzBexom79OrSEfGzrcR+VuUcFfTImNeiXMSTS9V25R9CcLTKXD+JUuvF0FfzpBkaJ4lcPk31/9bRUONGXqdUK1//GBcq4zgcycWrdrjKK1pcrvGj+vwKw/s0Gv7oTqjv821nmV2TdsrR/mwn3zdk1YtmzW3FgISx1cgtMRYwvBvKIWpkBH2dC1KvlglJ4x+43ZsuveKNnTZpQsWCXQVgG86S51SfN0RC8sOldHTD0dMXn/NOeRsBoTKE8F1otZNM/hHd3ws6UaGV8X5k1HXD9KZc77koX72ac3BBBAoD0JEMLa09vkWRBoYwJ2LzM7FdL+aQ8/cAXXgjX1kXKufUyFX7o8HobMtMTPosr5Q7Mps/2JN9L1pimy8aDyLg9s6GxK1Vetf1Q1fkAzTSMjX1BBTzNCZjZirv7PKkWuiweyreN16vgcs/bsEtV+9KiqLngwXhHRtNtt2l1xvmrfM1Ma9zf1zhPbJxdGsWvmbBi1ASxdRVOa9wTNP7uhELby/A9Ves8AM7IUL8xRVKoZ941Tn+TCHP4gqBco1ir/5rU6945Adb948CkftkwlXzOFOexaqO8vUfmu9BfmsFqxfcKWqOPUFzVlTHCfsId14OYfauF0f5+weGGOSfXr1pozHTG6ZZHuW3RQIx8q0ei+Zgvno9u02qwJ29z3DZVNN87xV0lhjuZ/pukBAQQQ8AUIYXwWEECg1QTsHmbV21aFfP1i5d841vxDco2qt5d7Uw9zzKhWB29UyxzeD/xLmtGr3StV9d6b8U2Z/Z93M/uLPWtG1OLB7XdmrZld6yWzsfO6Z6Qh8xQ5z3xbYcLb4ctVEC9LX/P7qxS5wPzL//Mtqnp1QXxaY/MfzwYwW54+245UISz6cZlm/91s9XkiHkDOUqK+3itWln7ZhgfOLAF/dLOWf3uqNsZL1I9+aIr0+DXpL1Efv9no4Xf0ylNl2viOKTNfebHy/2iUBs9coAnXm68DHwBbon550asqNZsp26M5Icyef+TnT+uZZd/T7m07paLBuvSvF+u+KYN10ely+ce0/ptdVH67e6GPbPu88rwIIIBAUwQIYU3Roi0CCIQqYKciRj96+XSfflEQLyuZUR/XEZ+UZfXP66XcIvtfDzNd8ALl2AU5waPqqKmOeER1JxMX78T6Os9c26/lbW/G/OfNRTQbPkcjpvy96ctMP6zd+Zxqu05V3oWmbbXZT2zTrxUZOtyrwFj3yQKdfHfLF/YKPrsNYfn9x3t9WaPs2CvsC9OlPNEbxakw5dWnDgi349bq7RemZP0LpkiGrfKYjnuwpf1vek3FP66fnpiOy3INBBBAoL0KEMLa65vluRBoAwI2aJ38l6+Gd6d/UqrCfmbqYcSMRiWvCfMSjAlRx7eq5r9fUXRX6o2avZsZUKpz+l9lvjBB65P9yu1lvzbH0XLVFhUrN2L6qTxhwphZF5YXn/N2qlzRl7+luhufNaNm56vuwBpVrVuZNMLW+KO6TMW0hTlcA2rjV2zfLaKVprBG1SYtn1imi773uu42e2m3j8NUcfybmdIj6XmmSlPa366nezK+nq59GPIUCCCAQOsJEMJaz54rI4CAEbAhzL3wRmNkd6nDPROUmxdoZ4PXiT2q3f+BqnesUW1g3VdDvUWGmMIbl5kwV2D2DVuxVHW3PmyqIZp9m9+fpKrf3aWCflWK/n6oCr2gFjvqfv28Tr61xnw1SJHepqLi3sON3WyTf2+Dlx2py6Z1YU1GSjqh/Omeeuy5QnWf+UPNvXeAAuObze261c+PfrxIs/9tsBbOGdGyz2XXzk1coi5lK06XxG/1h+cGEEAAgTYuQAhr4y+Q20egrQv4G0bbzaOD0xEbe66GgltkWKnyzjEbMf92p2o+26Ga/WcZ8WrkIjkXmgIfR/eY2Yhm4+Z+g1Sz48368vadbjdTBE0IO77FTGk8oZqD+7zeUk2NTDVqlXz/we8b2qvNhi9bHZEDAQQQQAABBNq2ACGsbb8/7h6BdiGQaq+wVIEsvBGzM9n8oBQMUQnrss7tGg9Z/p+mNL0ZmWrpw39m1oK1tDT9I4AAAgggkD4BQlj6rLkSAggkCSSXqG8NIH+KX6prpwpZZ5SOj4ez5PNTn2uLfqQ+mjIKaINiOgJga7wProkAAggggEA2CBDCsuEt84wIZKhA1fuPn94jLENvMSNvi2mJGflauCkEEEAAAQScBQhhzlQ0RACBsAXsSFjtid+c7rah6Yapfp7u6YphP3tz+rN7hlGmvjmCnIsAAggggEDrChDCWtefqyOAgKOADWI2eNk/k4NbcN2U7a4l14453m6LNWMUrMVo6RgBBBBAAIG0CRDC0kbNhRBAoDEBv1KiDVm1h7Z7ze3Pmnskr5/yi2+49pu8ibTreWG3s8/R4dbvsB4sbFj6QwABBBBAIM0ChLA0g3M5BBA4U8AGrVQVEhuyCm5oHCysYb+2o2CuRSvONs0xk0bT7NRD+0x5V4xkGiJ/gRBAAAEEEGgHAoSwdvASeQQE2rJAuJs1t2WJhu/dTkH0g1j7fEKeCgEEEEAAgewSIIRl1/vmaRHIKAE72mRDGEfjAnYkrPAvn2u8IS0QQAABBBBAIOMFCGEZ/4q4QQTar4A/5c+Wqg9j7Vd7lApOrSSEtcc3zDMhgAACCGSjACEsG986z4xABgnYtWAEsNgL8QOXX34+0u1qRfrclEFvi1tBAAEEEEAAgTAECGFhKNIHAgh8YYFMWRMWHHEKVk88s7Ji1yY9a3KBj+D3fsn9s3V4zqTXm3Q9GiOAAAIIIIBA5gsQwjL/HXGHCLRrATsK5oeeMKYlJoepWPXE+uCUe2799/a6rpUUW/olBPc687+2pfrz+49v6UvTPwIIIIAAAgikWYAQlmZwLocAAg0L1Ox6W9GPViVstuyHpGBgOj1tL0MDFe8YAQQQQAABBBA4mwAhjM8HAghklIAdBbLT9Px1URl1c9wMAggggAACCCAQggAhLAREukAAAQQQQAABBBBAAAEEXAUIYa5StEMAAQQQQAABBBBAAAEEQhAghIWASBcIIIAAAggggAACCCCAgKsAIcxVinYIIIAAAggggAACCCCAQAgChLAQEOkCAQQQQAABBBBAAAEEEHAVIIS5StEOAQQQQAABBBBAAAEEEAhBgBAWAiJdIIAAAggggAACCCCAAAKuAoQwVynaIYAAAggggAACCCCAAAIhCBDCQkCkCwQQQAABBBBAAAEEEEDAVYAQ5ipFOwQQQAABBBBAAAEEEEAgBAFCWAiIdIEAAggggAACCCCAAAIIuAoQwlylaIcAAggggAACCCCAAAIIhCBACAsBkS4QQAABBBBAAAEEEEAAAVcBQpirFO0QQAABBBBAAAEEEEAAgRAECGEhINIFAggggAACCCCAAAIIIOAqQAhzlaIdAggggAACCCCAAAIIIBCCACEsBES6QAABBBBAAAEEEEAAAQRcBQhhrlK0QwABBBBAAAEEEEAAAQRCECCEhYBIFwgggAACCCCAAAIIIICAqwAhzFWKdggggAACCCCAAAIIIIBACAKEsBAQ6QIBBBBAAAEEEEAAAQQQcBUghLlK0Q4BBBBAAAEEEEAAAQQQCEGAEBYCIl0ggAACCCCAAAIIIIAAAq4ChDBXKdohgAACCCCAAAIIIIAAAiEIEMJCQKQLBBBAAAEEEEAAAQQQQMBVgBDmKkU7BBBAAAEEEEAAAQQQQCAEAUJYCIh0gQACCCCAAAIIIIAAAgi4ChDCXKVohwACCCCAAAIIIIAAAgiEIEAICwGRLhBAAAEEEEAAAQQQQAABVwFCmKsU7RBAAAEEEEAAAQQQQACBEAQIYSEg0gUCCCCAAAIIIIAAAggg4CpACHOVoh0CCCCAAAIIIIAAAgggEIIAISwERLpAAAEEEEAAAQQQQAABBFwFCGGuUrRDAAEEEEAAAQQQQAABBEIQIISFgEgXCCCAAAIIIIAAAggggICrACHMVYp2CCCAAAIIIIAAAggggEAIAoSwEBDpAgEEEEAAAQQQQAABBBBwFSCEuUrRDgEEEEAAAQQQQAABBBAIQYAQFgIiXSCAAAIIIIAAAggggAACrgKEMFcp2iGAAAIIIIAAAggggAACIQgQwkJApAsEEEAAAQQQQAABBBBAwFWAEOYqRTsEEEAAAQQQQAABBBBAIAQBQlgIiHSBAAIIIIAAAggggAACCLgKEMJcpWiHAAIIIIAAAggggAACCIQgQAgLAZEuEEAAAQQQQAABBBBAAAFXAUKYqxTtEEAAAQQQQAABBBBAAIEQBAhhISDSBQIIIIAAAggggAACCCDgKkAIc5WiHQIIIIAAAggggAACCCAQggAhLAREukAAAQQQQAABBBBAAAEEXAUIYa5StEMAAQQQQAABBBBAAAEEQhAghIWASBcIIIAAAggggAACCCCAgKsAIcxVinYIIIAAAggggAACCCCAQAgChLAQEOkCAQQQQAABBBBAAAEEEHAVIIS5StEOAQQQQAABBBBAAAEEEAhBgBAWAiJdIIAAAggggAACCCCAAAKuAv8PYwORHT1tIpQAAAAASUVORK5CYII=;" vertex="1" parent="1">
          <mxGeometry x="11" y="37" width="799.71" height="343" as="geometry" />
        </mxCell>
      </root>
    </mxGraphModel>
  </diagram>
</mxfile>
